<?xml version="1.0" encoding="utf-8"?>
<!-- Generator: Adobe Illustrator 23.0.6, SVG Export Plug-In . SVG Version: 6.00 Build 0)  -->
<svg version="1.1" id="Layer_1" xmlns="http://www.w3.org/2000/svg" xmlns:xlink="http://www.w3.org/1999/xlink" x="0px" y="0px"
	 viewBox="0 0 36 31" style="enable-background:new 0 0 36 31;" xml:space="preserve">
<style type="text/css">
	.st0{fill:#333333;}
</style>
<g>
	<g>
		<line class="st0" x1="4.7" y1="5" x2="31.3" y2="5"/>
		<path class="st0" d="M31.3,7.5H4.7C3.3,7.5,2.2,6.4,2.2,5s1.1-2.5,2.5-2.5h26.5c1.4,0,2.5,1.1,2.5,2.5S32.7,7.5,31.3,7.5z"/>
	</g>
	<g>
		<line class="st0" x1="4.7" y1="15.5" x2="26.2" y2="15.8"/>
		<path class="st0" d="M26.2,18.3C26.2,18.3,26.1,18.3,26.2,18.3L4.7,18c-1.4,0-2.5-1.1-2.5-2.5c0-1.4,1.2-2.5,2.5-2.5l21.4,0.3
			c1.4,0,2.5,1.1,2.5,2.5C28.6,17.2,27.5,18.3,26.2,18.3z"/>
	</g>
	<g>
		<line class="st0" x1="4.7" y1="26" x2="18" y2="26"/>
		<path class="st0" d="M18,28.5H4.7c-1.4,0-2.5-1.1-2.5-2.5s1.1-2.5,2.5-2.5H18c1.4,0,2.5,1.1,2.5,2.5S19.4,28.5,18,28.5z"/>
	</g>
</g>
</svg>
